<svg id="Layer_1" data-name="Layer 1" xmlns="http://www.w3.org/2000/svg" viewBox="0 0 401 129"><defs><style>.cls-1{fill:#fff;}</style></defs><title>Artboard 1horz</title><path class="cls-1" d="M146.12,93.82c-2.61.36-2.84.48-4.53,3.69s-5,10.34-10.22,21.48h-1.44l-3.17-19.8h-.16L117.11,119h-1.44l-2.41-21.52c-.36-3.2-.52-3.36-3.28-3.64l.28-1.24h9.21l-.28,1.24-1,.16c-1.68.24-1.92.4-1.68,2.52l1.72,16.59h.08L127.77,93h1.32l3.25,20.11h.08c2.44-5.33,5.81-12.3,7.41-16.51.8-2.08.6-2.4-1.52-2.65l-1-.16.28-1.24h8.81Z"/><path class="cls-1" d="M192.64,115.18c-2.4,2.64-4.73,3.92-5.81,3.92s-1.44-1.08-.72-4.17,1.48-6,2.16-8.89c.56-2.29.36-2.85-.28-2.85-1.76,0-6.41,4.85-8.41,8.21-.52,2-1.16,4.45-1.64,6.89a16.35,16.35,0,0,0-3,.79l-.28-.32c1.12-4.29,2.32-9.22,3.33-13.58.28-1.24.16-1.56-.08-1.56a7.49,7.49,0,0,0-2.65,1.89l-.6-1.16c2.24-2.37,4.61-3.85,5.81-3.85,1,0,1.16,1.37.36,4.65l-.72,3h.08a25.19,25.19,0,0,1,7.21-6.73,5.73,5.73,0,0,1,2.8-1c1,0,2.2.6,1,5.69-.64,2.72-1.32,5.53-2,8.34-.28,1.12-.2,1.44.08,1.44a6.4,6.4,0,0,0,2.68-1.93Z"/><path class="cls-1" d="M217.92,100.51c1.84,0,3.21,1.28,3.21,2.32a2.09,2.09,0,0,1-1,1.73.62.62,0,0,1-.92-.16,3.9,3.9,0,0,0-3.16-1.84,2.16,2.16,0,0,0-2.17,2.2c0,1.4,1.16,2.41,2.64,3.49,2.45,1.76,3.45,3,3.45,4.77,0,3.09-4,6.09-7.37,6.09-1.92,0-4.17-1.52-4.17-2.92a2,2,0,0,1,1.16-1.72c.56-.28.88-.2,1.12.12a5,5,0,0,0,3.89,2.44,2.49,2.49,0,0,0,2.65-2.36c0-1-.44-1.84-2.41-3.37-1.84-1.36-3.57-2.81-3.57-4.93a5.18,5.18,0,0,1,2.08-3.88,8.38,8.38,0,0,1,4.57-2Z"/><path class="cls-1" d="M230.5,100.51c1.84,0,3.21,1.28,3.21,2.32a2.09,2.09,0,0,1-1,1.73.62.62,0,0,1-.93-.16,3.89,3.89,0,0,0-3.16-1.84,2.16,2.16,0,0,0-2.16,2.2c0,1.4,1.16,2.41,2.64,3.49,2.45,1.76,3.44,3,3.44,4.77,0,3.09-4,6.09-7.37,6.09-1.92,0-4.17-1.52-4.17-2.92a2,2,0,0,1,1.17-1.72c.56-.28.88-.2,1.12.12a5,5,0,0,0,3.89,2.44,2.49,2.49,0,0,0,2.65-2.36c0-1-.44-1.84-2.4-3.37-1.84-1.36-3.57-2.81-3.57-4.93a5.18,5.18,0,0,1,2.08-3.88,8.38,8.38,0,0,1,4.57-2Z"/><path class="cls-1" d="M264,112.13a38.33,38.33,0,0,1-3.21,6.13,30.7,30.7,0,0,1-7.05,1c-6.73,0-11.78-4-11.78-11.58C242,98.11,249.41,92,258.74,92a20.1,20.1,0,0,1,7,1.29c-.12,2.09-.16,4.36-.32,6.29l-1.37.12c-.2-4.81-2.24-6.13-6.25-6.13-7,0-11.78,6.57-11.78,14,0,5.77,2.92,10.17,8.25,10.17,4,0,6.25-2.56,8.57-6.21Z"/><path class="cls-1" d="M276.82,100.51c3.37,0,5.41,2.24,5.41,6.37a12.93,12.93,0,0,1-4.33,9.7,10.17,10.17,0,0,1-6.29,2.52c-3.85,0-5.41-3-5.41-6.33a12.2,12.2,0,0,1,6.09-10.94,10.19,10.19,0,0,1,4.49-1.32Zm-1.4,1.68a3.14,3.14,0,0,0-1.52.36c-1.6.72-4.21,4-4.21,10,0,3,1.24,4.85,3.4,4.85a3.3,3.3,0,0,0,1.32-.28c2.13-.92,4.33-5.09,4.33-10.18,0-3.24-1.4-4.72-3.28-4.72Z"/><path class="cls-1" d="M312.8,115.18c-2.25,2.52-4.81,3.92-5.85,3.92s-1.4-1.2-.72-4l2.24-9.42c.4-1.8.2-2.48-.44-2.48-1.93,0-6.77,5.65-8.18,8.25-.52,1.92-1.12,4.65-1.6,7a15.13,15.13,0,0,0-3,.72l-.24-.28c1-4.09,2-8.22,2.89-12.18.56-2.61.52-3.49-.32-3.49-2,0-6.89,5.77-8.17,8.29-.52,1.81-1.16,4.53-1.64,6.93a16.25,16.25,0,0,0-3,.72l-.32-.28c1.24-4.57,2.36-9.1,3.37-13.63.32-1.48.2-1.64,0-1.68A9.38,9.38,0,0,0,285,105.6l-.56-1.12c2.32-2.57,4.72-4,5.81-4s1.24,1.48.4,4.85l-.68,2.81H290a24.68,24.68,0,0,1,7.09-6.81,5,5,0,0,1,2.61-.85c1.16,0,2.2,1,1.08,6.05l-.36,1.56h.08a23.32,23.32,0,0,1,7.29-6.81,5.08,5.08,0,0,1,2.52-.8c.88,0,2.25.49,1,5.81l-2,8.42c-.24,1-.16,1.24.08,1.24a7.05,7.05,0,0,0,2.81-1.88Z"/><path class="cls-1" d="M321.91,101a15.23,15.23,0,0,1,3.73-.52c4.21,0,5.89,2,5.89,5.69a12.82,12.82,0,0,1-3.44,8.25,15.63,15.63,0,0,1-7.53,4.64,6.82,6.82,0,0,1-2.41-.4l-1.08,5.45c-.44,2.13-.24,2.49,1.76,2.69l1,.08-.16,1.21-9.37.48.2-1.2c2.4-.44,2.93-.8,3.45-3.09,1.48-6.93,3-13.82,4.49-20.68a17.26,17.26,0,0,0-3.33,1.48l-.28-1.2a22.54,22.54,0,0,1,3.92-2l.48-1.84a14,14,0,0,1,3-2.37l.4.28Zm2,1.37a13,13,0,0,0-2.4.28l-2.73,13.19a3.64,3.64,0,0,0,2.53,1.32c2.84,0,6.73-5.29,6.73-10.37,0-3.53-1.88-4.41-4.09-4.41Z"/><path class="cls-1" d="M370.13,115.18c-2.4,2.64-4.73,3.92-5.81,3.92s-1.44-1.08-.72-4.17,1.48-6,2.16-8.89c.56-2.29.36-2.85-.28-2.85-1.76,0-6.41,4.85-8.42,8.21-.52,2-1.16,4.45-1.64,6.89a16.33,16.33,0,0,0-3,.79l-.28-.32c1.12-4.29,2.33-9.22,3.33-13.58.28-1.24.16-1.56-.08-1.56a7.48,7.48,0,0,0-2.64,1.89l-.6-1.16c2.25-2.37,4.61-3.85,5.81-3.85,1,0,1.16,1.37.36,4.65l-.72,3h.08a25.16,25.16,0,0,1,7.21-6.73,5.72,5.72,0,0,1,2.81-1c1,0,2.2.6,1,5.69-.64,2.72-1.32,5.53-2,8.34-.28,1.12-.2,1.44.08,1.44a6.35,6.35,0,0,0,2.68-1.93Z"/><path class="cls-1" d="M379.59,115.42c1.72-2.57,5.41-8,5.37-10.82a4.65,4.65,0,0,0-.44-1.88,1.56,1.56,0,0,1,0-1,2.17,2.17,0,0,1,1.8-1.16c1,0,1.68.92,1.68,2.24a9.17,9.17,0,0,1-1.48,4.37,133.76,133.76,0,0,1-7.29,11.22,93,93,0,0,1-7.21,9.3l-4.33,1.12-.36-1a35,35,0,0,0,9.46-8.77,116.86,116.86,0,0,0-1.24-13.06c-.28-2-.52-2.36-.88-2.36a7.39,7.39,0,0,0-2.33,2.4l-.8-1c1.32-2,3.33-4.37,4.89-4.37,1.16,0,1.76,1.48,2.13,4.65s.68,6.77.92,10.26Z"/><path class="cls-1" d="M91.85,109c-1.6,1.83-3.43,2.82-4.31,2.82s-1-.87-.53-2.79l1.57-6.75c.35-1.51.29-2-.26-2-1.28,0-4.74,3.32-6.14,5.65-.29,1.31-.84,3.87-1.11,5.35-.67.15-1.48.35-2.13.55l-.23-.2c1.08-4.86,2.65-12.2,3.7-17.64a44.08,44.08,0,0,0-5-.26H75.26l-2.88,13.94c-.52,2.56-.29,2.74,2.42,2.94l-.23.9H66.47l.2-.9c2.48-.21,2.68-.38,3.23-2.94L73,93.7H70.84c-2.48,0-3.12.26-3.64.87a10,10,0,0,0-1.46,2.56h-1c.53-1.74,1-3.64,1.4-5.3h.67c.32.7.55.73,1.34.73H79.86c2.21,0,2.68-.09,2.94-.47l.12-.61a7.85,7.85,0,0,1,2.07-.7c.29,0,.32.26.15,1.05-.87,3.93-1.66,7.71-2.56,11.81h.06a18,18,0,0,1,5.47-4.71A4.09,4.09,0,0,1,90,98.33c.79,0,1.57.52.93,3.29l-1.6,6.87c-.21.9-.15,1.11.06,1.11a5.13,5.13,0,0,0,2.07-1.37Z"/><path class="cls-1" d="M102.4,108.49c-2.59,2.83-4.86,3.35-6.26,3.35s-3.29-.78-3.29-4.28A9.7,9.7,0,0,1,96.38,100a7.27,7.27,0,0,1,4.1-1.66,2.52,2.52,0,0,1,2.68,2.42c0,3-5,4.51-7.86,5.21,0,.29,0,.55,0,.87,0,1.57.49,3.18,2.27,3.18a6.93,6.93,0,0,0,4.34-2.27Zm-3-8.88a2.52,2.52,0,0,0-1.22.35c-.79.47-2.24,1.78-2.74,5,4.22-1.08,5.47-2.41,5.47-3.75a1.42,1.42,0,0,0-1.48-1.57Z"/><path class="cls-1" d="M400,104.63a4.12,4.12,0,1,1-4.12-4.12A4.06,4.06,0,0,1,400,104.63Zm-7.59,0a3.48,3.48,0,1,0,3.48-3.53A3.44,3.44,0,0,0,392.41,104.63ZM395,107h-.59v-4.76h1.83c1.07,0,1.55.46,1.55,1.32a1.28,1.28,0,0,1-1.19,1.33L398,107h-.69L396,104.89h-1Zm.78-2.61c.72,0,1.43,0,1.43-.83s-.55-.82-1.13-.82H395v1.65Z"/><path class="cls-1" d="M151.7,114c-1.84,1.63-3.81,2.61-5.36,2.61-2.44,0-3.13-2.2-3.13-4.36a11.94,11.94,0,0,1,0-1.21c3.93-1,10.82-3,10.82-7.17a3.46,3.46,0,0,0-3.69-3.33,10,10,0,0,0-5.65,2.29,13.36,13.36,0,0,0-4.85,10.42c0,4.81,2.6,5.89,4.53,5.89s4.71-.68,8-4Zm-4.48-11.22a3.49,3.49,0,0,1,1.68-.48h0a2,2,0,0,1,2,2.16c0,1.84-1.72,3.69-7.53,5.17C144.14,105.2,146.14,103.4,147.22,102.75Z"/><path class="cls-1" d="M161.85,114a8.24,8.24,0,0,1-2.93,2c-.24,0-.4-.24-.16-1.48,1.68-7.77,3.08-14.52,4.68-22.13.2-.88.16-1.24-.24-1.24a41.86,41.86,0,0,1-6,1.36L157,93.69h1c1.88,0,2.12.28,1.72,2-1.36,6.49-2.56,12-3.92,18.52-.88,4-.16,4.93.64,4.93,1.24,0,4-1.69,6-4Z"/><path class="cls-1" d="M171.83,114a8.24,8.24,0,0,1-2.93,2c-.24,0-.4-.24-.16-1.48,1.68-7.77,3.08-14.52,4.68-22.13.2-.88.16-1.24-.24-1.24a41.86,41.86,0,0,1-6,1.36L167,93.69h1c1.88,0,2.12.28,1.72,2-1.36,6.49-2.56,12-3.92,18.52-.88,4-.16,4.93.64,4.93,1.24,0,4-1.69,6-4Z"/><path class="cls-1" d="M349.43,114a9.38,9.38,0,0,1-2.74,1.92c-.24,0-.32-.36-.08-1.8.88-5,2.08-10.38,2.76-12.9l-.16-.16a8.41,8.41,0,0,1-1.56-.24,11.08,11.08,0,0,0-2.56-.32h0a12.9,12.9,0,0,0-7.45,3,15,15,0,0,0-4.89,10.94c0,3.25,1.32,4.61,2.45,4.61a6.73,6.73,0,0,0,3.8-1.76,28.87,28.87,0,0,0,5.09-5.41h.08l-.72,3.57c-.56,3-.08,3.6.76,3.6,1,0,3.68-1.42,6-4.06Zm-4.7-5.42c-1.2,2.65-5.85,7.81-7.49,7.81-.56,0-1.08-.8-1.08-2.56,0-3.93,1.6-8.61,4.33-10.62a5.09,5.09,0,0,1,2.88-.84h0A6.41,6.41,0,0,1,346,103C345.78,104.2,345.26,106.92,344.74,108.61Z"/><path class="cls-1" d="M206.25,114c-1.84,1.63-3.81,2.6-5.36,2.6-2.44,0-3.12-2.2-3.12-4.36,0-.44,0-.8,0-1.21,3.93-1,10.82-3,10.82-7.17a3.46,3.46,0,0,0-3.69-3.33,10,10,0,0,0-5.65,2.29,13.37,13.37,0,0,0-4.85,10.42c0,4.81,2.6,5.89,4.53,5.89s4.71-.68,8-4Zm-4.64-11.22a3.48,3.48,0,0,1,1.68-.48h0a2,2,0,0,1,2,2.16c0,1.84-1.72,3.69-7.53,5.17C198.52,105.2,200.52,103.4,201.61,102.75Z"/><path class="cls-1" d="M152.34,23.41l-.46,2.09c-7.36.54-8.45,1.17-10.08,11l-5.7,32.9c-1.64,9.81-2.32,10.44,5.22,11l-.45,2.1H117.33l.46-2.1c7.35-.54,9.4-1.18,11.12-11l6.62-36.54h-.37L104.48,81.48H102.3L91.34,34h-.18L85.52,58.4c-2.18,9.53-3.09,14.44-3.27,16.81-.37,3.64,1.92,4.82,7.82,5.18l-.36,2.1H68.07l.36-2.19c5-.08,7.36-1.44,8.63-4.81,1-2.64,2.46-7.64,4.82-17.08l5.36-21.91c2.37-9.63.91-10.37-6.63-11l.45-2.09H95.52L107.2,70.85l30.14-47.44Z"/><path class="cls-1" d="M217.37,45.76a16.91,16.91,0,0,1,6.28,1c-.28,3.45-2.36,12.81-3.55,15.17-1.45,2.91-4.81,6.64-7,9-3.54,3.81-7.36,6.54-8.72,6.54-1.73,0-2.46-2.47-2.46-6a39.06,39.06,0,0,1,3.28-15c2.72-5.9,5.72-8.45,8.26-9.81A9.15,9.15,0,0,1,217.37,45.76Zm.28,32.44c-.91,4.37.81,5.36,1.9,5.36,1.37,0,8.81-4.1,13.45-8.63l-1-1.82c-2.72,2-6,4.37-6.82,4.37s-.63-1.27-.18-4.09c1.73-10.36,4-20.63,6-29.89l-.45-.37a16.65,16.65,0,0,1-3.55-.55,25.63,25.63,0,0,0-4.82-.64c-5.72,0-13,3.46-17.72,7.64-5.72,5.09-10,15-10,24.35,0,7.81,3.27,9.64,5.27,9.64,1.46,0,6.09-3,7.63-4.27a82.39,82.39,0,0,0,12.46-12.72H220Z"/><path class="cls-1" d="M380.29,45.76a16.87,16.87,0,0,1,6.27,1c-.28,3.45-2.36,12.81-3.55,15.17-1.45,2.91-4.8,6.64-7,9-3.55,3.81-7.37,6.54-8.72,6.54-1.73,0-2.46-2.47-2.46-6a39.25,39.25,0,0,1,3.27-15c2.72-5.9,5.72-8.45,8.27-9.81A9.08,9.08,0,0,1,380.29,45.76Zm.27,32.44c-.9,4.37.82,5.36,1.91,5.36,1.36,0,8.81-4.1,13.45-8.63l-1-1.82c-2.72,2-6,4.37-6.82,4.37s-.63-1.27-.18-4.09c1.73-10.36,4-20.63,6-29.89l-.44-.37a16.63,16.63,0,0,1-3.55-.55,25.64,25.64,0,0,0-4.81-.64c-5.72,0-13,3.46-17.72,7.64-5.74,5.09-10,15-10,24.35,0,7.81,3.27,9.64,5.27,9.64,1.46,0,6.09-3,7.63-4.27a83.2,83.2,0,0,0,12.46-12.72h.17Z"/><path class="cls-1" d="M353.2,41.94c-6,0-11.72,3.19-15.45,6.55-6.27,5.63-9.64,15.26-9.64,22.45,0,8,3.64,12.63,9.18,12.63,3.66,0,11.13-2.92,16.93-8.43l-1.14-2.07c-2.64,2.16-6.73,5.32-11.25,5.32s-6.36-4.09-6.36-9.46c0-6.26,1.82-13.17,4.55-17.45C342.11,48,344.48,46,347.11,46a8.07,8.07,0,0,1,6.36,3.64c.91,1.26,2.09.9,3.27.09A4.94,4.94,0,0,0,359.19,46C359.19,44.13,356.46,41.94,353.2,41.94Z"/><path class="cls-1" d="M325,73.11c-2.54,2-6,4.09-6.81,4.09s-.55-1,.08-3.82l6.92-31.45h-.92l-6,2.46a111.86,111.86,0,0,1-3.18,13.73c-2.08,4.81-13.63,19.71-18.36,19.71-2.36,0-2.09-2.9-.9-8.36l4.81-21.72c.83-3.54.73-5.82-1.72-5.82-1.83,0-7.26,3.56-12,8l1,1.88c2.12-1.78,4.61-3.28,5.41-3.28s.47,1.64-.36,5.09l-4.27,19c-2.18,9.62,1.36,10.91,2.46,10.91,2.36,0,5.27-1.63,7.44-3.09,5.63-3.72,10.63-9.91,14.91-15.63h.27l-2.55,11.63c-1.08,4.81-.54,7.09,1.46,7.09,1.18,0,8.81-4.1,13.36-8.63Z"/><path class="cls-1" d="M170.34,73.06c-4.87,4.11-8.87,5.42-11.86,5.42-5.91,0-6.91-6.17-6.91-10.91a19.62,19.62,0,0,1,.27-2.18c8.72-2.54,24.08-8.36,24.08-16.63,0-3.72-3-6.82-7.64-6.82-3.9,0-9.36,2.46-13.36,5.55C148.21,52.67,144.4,62,144.4,70.3c0,10.73,5.91,13.27,9.35,13.27,2.86,0,9.51-.94,17.75-8.39Zm-9.22-26.56a6.84,6.84,0,0,1,3.19-.82,4.28,4.28,0,0,1,4.54,4.45c0,4.9-3.91,8.82-16.54,12.54C153.94,52.58,158.3,48,161.12,46.49Z"/><path class="cls-1" d="M278.72,73.09c-4.86,4.09-8.84,5.39-11.83,5.39-5.9,0-6.9-6.17-6.9-10.91a19.56,19.56,0,0,1,.27-2.18C269,62.85,284.34,57,284.34,48.76c0-3.72-3-6.82-7.63-6.82-3.9,0-9.35,2.46-13.36,5.55C256.62,52.67,252.81,62,252.81,70.3c0,10.73,5.91,13.27,9.36,13.27,2.86,0,9.49-.94,17.71-8.37Zm-9.19-26.59a6.8,6.8,0,0,1,3.18-.82,4.28,4.28,0,0,1,4.55,4.45c0,4.9-3.91,8.82-16.54,12.54C262.35,52.58,266.72,48,269.53,46.49Z"/><path class="cls-1" d="M191.73,74.67c-4.25,5.17-10.35,8.92-13,8.92-1.67,0-3.17-1.91-1.34-10.26,2.84-13.6,6.34-30.25,9.17-43.77.83-3.5.34-4-3.59-4.09h-2.17l.33-2c7.54-.6,11.51-3.21,12.51-3.21.84,0,.91.75.5,2.58-3.34,15.86-7.25,35.09-10.75,51.28-.5,2.59-.17,3.09.33,3.09.92,0,4.34-2.26,6.67-4.67Z"/><path class="cls-1" d="M250.69,74.67c-4.25,5.17-10.35,8.92-13,8.92-1.67,0-3.17-1.91-1.34-10.26,2.84-13.6,6.33-30.25,9.17-43.77.83-3.5.34-4-3.59-4.09h-2.17l.33-2c7.54-.6,11.51-3.21,12.51-3.21.84,0,.91.75.5,2.58-3.34,15.86-7.25,35.09-10.75,51.28-.5,2.59-.17,3.09.33,3.09.92,0,4.34-2.26,6.67-4.67Z"/><path class="cls-1" d="M42.83,30a2,2,0,0,1-.72-2.76A23.71,23.71,0,0,0,43.55,1.75l-.24-.39a3.26,3.26,0,0,0-1.17,2.31c.43,1,.94,1.83,1.64,3.1,3.67,6.77-.43,19.61-4.89,20.88C27.25,31,12.33,36.24,5.33,50.92h0v0a.07.07,0,0,0,.07.07l0,0,0,0c10-12.79,28.49-17.14,30-17.49.87-.19-1.19,2.23-1.68,2.89S31.36,38,29.53,38.73c-4,1.63-21.47,9.59-27.43,23.91v0h0a.07.07,0,0,0,.07.07l0,0h0C4.33,59.71,13.2,50,29,44.22c.33-.13.39,0,.37.25-.08.88-1.36,3.29-5.69,5.87C15.72,55.13,3.18,63.56.68,75.2h0v0a.07.07,0,0,0,.07.07.07.07,0,0,0,.06,0h0c2.81-5.84,10.78-14,21.78-18.8a.19.19,0,0,1,.27.22c-.18,2.22-2.73,5.15-3.42,5.85C16,65.78,2.66,73.21,1.64,86.74v0h0a.07.07,0,0,0,.07.06.07.07,0,0,0,.06,0h0c3.16-9.64,14.54-17.21,16.75-18,.29-.1.29.09.29.22a8.87,8.87,0,0,1-2.67,6.73c-2.5,1.94-11,7.83-11.53,18v0h0a.07.07,0,0,0,.07.06.07.07,0,0,0,.07-.07h0c1.63-7.12,9.72-12,11.48-12.52.14,0,.25,0,.28.28a5.53,5.53,0,0,1-2.07,4.6c-4.89,3.28-7.51,10.09-6.67,14.69h0a.07.07,0,0,0,0,0,.07.07,0,0,0,.12,0,.28.28,0,0,0,0-.06c.72-6.21,4.16-9.88,7.3-11.14.49-.15.58,0,.57.73a7.26,7.26,0,0,1-1.5,4.38c-3.19,4-3.43,9.9-2.58,12.9h0a.07.07,0,0,0,0,0,.07.07,0,0,0,.12,0h0s0,0,0,0c-.05-5.5,2.12-8.67,3.77-9.49.32-.15.43-.11.6.53.44,1.65.12,2.24-.4,3.84C14,108,16.45,116.13,23,119.74l0,0h0a.07.07,0,0,0,0-.12h0c-4.29-4.58-5.39-10-5-12.84.18-1.37.57-3.07,1.59-2.4a10.6,10.6,0,0,1,2.28,7.22h0a.07.07,0,0,0,.13,0v0c2.26-7.17-.63-11.42-3-14-1-1.13-.89-4.56-.82-5,.18-.93.66-1.32,1.27-.92.38.25,4.12,2.84,4.43,9h0a.07.07,0,0,0,.13,0v0c1.27-4.45,1-9-4.19-14.3-1.61-1.51-.67-6.19-.38-7.26A.68.68,0,0,1,20.72,79s7.86,7.61,5.94,15.6a.06.06,0,0,0,0,0h0a.07.07,0,0,0,.07.07l0,0v0c2.46-3.2,2.7-10-1.17-16.31-2.34-3.81-4.45-5.8-4.4-7.16A11.83,11.83,0,0,1,22.14,67a.77.77,0,0,1,1.12-.28c1.42,1,10.81,9.3,8.13,19.81a.06.06,0,0,0,0,0h0a.07.07,0,0,0,.07.07h0l0,0c5.37-7.57,2.32-17.69-5.75-25.69-1.16-1.15,0-5,1.07-6.28a.55.55,0,0,1,.76-.08c5.58,3.18,13,15.43,10.13,23.52h0v0a.07.07,0,0,0,.07.07l0,0,0,0c6.38-8.25.83-21.66-6.24-30.72-.84-1.57,1-3.76,1.2-4,.39-.49.57-.44.87-.24,10.08,7.77,12.88,21.29,9.7,28.49h0v0a.07.07,0,0,0,.07.07l0,0h0C51,62.58,48.21,48.09,37.68,37c-.69-.84-.38-1.62.35-2.71a.62.62,0,0,1,1-.15C54.44,45,52.89,56.19,50.2,63.36h0a.07.07,0,0,0,.07.07l0,0,0,0C55.3,57.69,60.47,42.11,42.83,30Z"/><path class="cls-1" d="M47.39,101.43c-4.06-4.81-4.56-9.86-4.19-15.51h0a.07.07,0,0,0-.07-.06l0,0h0c-3.23,3.87-13.85,15-12.69,25.79,0,.12.13.94.13.94a10.5,10.5,0,0,0,20.84-2C51.37,107.89,50.35,104.93,47.39,101.43Z"/></svg>